<?xml version="1.0" standalone="no"?>
<!DOCTYPE svg PUBLIC "-//W3C//DTD SVG 20010904//EN"
 "http://www.w3.org/TR/2001/REC-SVG-20010904/DTD/svg10.dtd">
<svg version="1.0" xmlns="http://www.w3.org/2000/svg"
 width="500.000000pt" height="500.000000pt" viewBox="0 0 500.000000 500.000000"
 preserveAspectRatio="xMidYMid meet">
<metadata>
Created by potrace 1.14, written by Peter Selinger 2001-2017
</metadata>
<g transform="translate(0.000000,500.000000) scale(0.100000,-0.100000)"
fill="#000000" stroke="none">
<path d="M2450 4901 c-14 -10 -160 -96 -325 -191 -165 -95 -312 -182 -327
-192 -16 -11 -28 -16 -28 -12 0 4 -8 0 -17 -8 -10 -8 -67 -44 -128 -79 -60
-35 -119 -69 -130 -76 -11 -7 -27 -15 -35 -19 -8 -4 -31 -17 -50 -29 -29 -18
-163 -96 -405 -235 -16 -10 -70 -41 -120 -70 -49 -29 -103 -60 -120 -70 -16
-9 -65 -38 -107 -63 -43 -25 -78 -43 -78 -39 0 4 -4 2 -8 -4 -6 -9 -65 -45
-182 -112 -19 -10 -62 -35 -95 -55 -33 -19 -80 -46 -105 -60 l-45 -25 -2 -139
c-1 -76 -4 -253 -6 -393 l-4 -255 50 -27 c27 -15 54 -25 60 -21 6 3 7 1 3 -5
-4 -7 -1 -12 8 -12 9 0 16 -4 16 -10 0 -5 5 -10 11 -10 5 0 27 -11 47 -25 39
-27 58 -32 46 -13 -4 7 -3 8 5 4 6 -4 9 -11 6 -16 -3 -5 20 -23 52 -40 106
-56 157 -86 160 -96 2 -5 -99 -69 -225 -142 l-228 -133 -3 -237 c-1 -130 -4
-306 -5 -390 -2 -116 1 -155 11 -164 7 -6 13 -7 13 -3 0 5 8 -1 17 -12 17 -18
36 -29 56 -31 4 -1 15 -8 24 -17 8 -9 22 -14 30 -11 8 3 11 1 8 -4 -3 -6 1
-10 9 -10 9 0 16 -4 16 -10 0 -5 9 -10 20 -10 11 0 20 -4 20 -8 0 -13 59 -43
72 -36 6 4 8 3 4 -4 -3 -6 3 -13 14 -17 11 -3 20 -10 20 -15 0 -7 35 -20 45
-17 2 1 11 -7 19 -18 9 -11 16 -16 16 -12 0 4 17 -3 37 -17 20 -14 40 -23 45
-20 4 3 8 1 8 -4 0 -13 96 -63 105 -54 5 4 5 2 2 -5 -8 -14 69 -56 85 -47 7 4
8 2 4 -5 -4 -6 0 -14 11 -18 10 -4 20 -9 23 -12 16 -19 111 -60 126 -55 16 5
16 4 4 -5 -13 -10 -13 -12 0 -20 8 -5 17 -8 21 -6 3 3 14 -4 24 -15 10 -11 22
-17 26 -14 5 3 9 0 9 -6 0 -6 4 -9 9 -6 5 3 20 -4 33 -17 14 -12 31 -23 38
-25 8 -2 27 -13 43 -24 24 -17 33 -19 48 -10 12 8 19 8 19 2 0 -5 -5 -10 -11
-10 -8 0 -8 -5 1 -15 7 -8 16 -13 20 -10 4 3 20 -7 34 -20 15 -14 32 -23 37
-20 5 4 9 1 9 -6 0 -8 4 -8 16 1 8 8 14 9 13 4 -4 -23 3 -34 21 -34 11 0 20
-4 20 -10 0 -5 5 -10 11 -10 6 0 17 -7 26 -15 8 -8 19 -13 24 -10 5 4 9 1 9
-4 0 -6 7 -11 15 -11 8 0 15 -4 15 -9 0 -10 30 -23 40 -18 3 1 12 -4 20 -11
23 -20 123 -82 133 -82 5 0 15 -7 24 -15 8 -8 19 -13 24 -10 5 4 9 1 9 -5 0
-7 7 -9 16 -6 8 3 12 2 9 -4 -10 -16 24 -23 43 -9 14 11 15 11 5 -1 -21 -23
-15 -33 15 -26 19 5 23 4 13 -3 -11 -7 -5 -14 27 -28 23 -10 42 -21 42 -25 0
-5 9 -8 21 -8 11 0 18 -3 15 -8 -2 -4 13 -16 35 -26 21 -11 39 -23 39 -27 0
-5 6 -6 14 -3 7 3 16 -2 20 -11 3 -9 10 -13 16 -10 6 4 8 11 5 16 -4 5 -1 9 5
9 6 0 10 -6 8 -14 -2 -12 61 -66 78 -66 2 0 22 -11 43 -24 21 -14 42 -22 45
-19 3 4 6 1 6 -5 0 -7 7 -12 15 -12 8 0 15 -4 15 -10 0 -5 7 -10 15 -10 9 0
25 -9 37 -20 12 -11 30 -20 40 -20 10 0 18 -4 18 -8 0 -5 15 -17 33 -27 l34
-18 304 178 c167 97 320 186 339 197 19 11 86 50 149 86 64 37 124 72 133 77
10 6 84 48 164 95 81 47 165 95 188 108 22 13 58 35 78 48 21 13 40 24 42 24
2 0 40 21 83 47 43 25 103 61 133 78 30 18 125 72 210 122 164 95 335 194 385
223 95 55 111 65 126 77 14 12 16 49 18 271 2 141 4 316 5 389 l2 132 -25 12
c-14 7 -32 11 -40 10 -7 -1 -11 2 -8 6 3 5 -3 15 -15 22 -16 10 -19 10 -13 -1
4 -7 1 -6 -7 2 -22 26 -68 52 -68 39 0 -6 -10 0 -21 15 -12 15 -27 25 -34 22
-8 -2 -16 2 -19 10 -3 9 -10 13 -15 10 -5 -3 -12 1 -15 10 -3 8 -10 12 -16 9
-5 -3 -10 -1 -10 4 0 6 -7 11 -15 11 -8 0 -15 5 -15 11 0 5 -4 8 -9 4 -5 -3
-15 1 -23 8 -21 20 -105 67 -112 62 -3 -3 -3 -1 1 3 5 5 100 62 213 127 113
65 217 126 231 136 l25 18 3 243 c1 134 3 309 5 390 2 141 1 148 -18 155 -12
4 -24 6 -29 5 -4 -1 -6 4 -5 10 2 7 -3 12 -9 10 -7 -1 -13 3 -13 10 0 6 -10 3
-22 -8 -13 -10 -17 -12 -10 -4 6 8 12 17 12 21 0 14 -33 19 -49 7 -14 -11 -14
-11 -3 4 11 14 9 18 -19 32 -17 9 -36 13 -42 9 -6 -3 -7 -1 -3 6 4 6 0 14 -11
18 -10 3 -30 15 -45 25 -14 10 -33 18 -42 18 -9 0 -19 7 -22 15 -4 8 -10 12
-15 9 -5 -3 -9 -1 -9 4 0 9 -31 23 -56 26 -6 1 -19 9 -28 19 -10 9 -22 15 -27
11 -5 -3 -8 0 -7 8 2 7 -3 12 -9 10 -7 -1 -13 2 -13 8 0 5 -6 10 -14 10 -8 0
-16 6 -19 13 -3 9 -9 9 -26 -1 -11 -7 -21 -8 -21 -3 0 5 6 11 13 14 7 3 5 8
-8 13 -11 4 -26 14 -34 22 -7 7 -20 11 -27 8 -7 -3 -16 4 -19 15 -4 10 -11 17
-16 14 -5 -4 -9 -1 -9 4 0 6 -3 10 -7 9 -13 -2 -47 15 -61 31 -8 9 -11 10 -7
4 4 -9 1 -11 -9 -7 -9 3 -13 10 -10 15 8 13 -10 11 -25 -3 -10 -11 -11 -10 -6
4 5 12 1 20 -11 25 -11 3 -31 14 -45 24 -14 10 -29 16 -33 12 -3 -3 -6 0 -6 7
0 7 -3 11 -6 7 -3 -3 -15 3 -27 13 -15 15 -24 17 -34 8 -11 -9 -12 -7 -7 8 4
10 4 16 0 12 -4 -3 -16 2 -27 13 -11 11 -24 17 -29 14 -6 -4 -10 -1 -10 5 0 6
-4 9 -9 6 -5 -3 -12 1 -15 10 -3 9 -13 14 -20 11 -8 -3 -17 1 -20 9 -3 7 -23
22 -46 31 -22 10 -40 21 -40 25 0 5 -4 8 -9 8 -5 0 -40 19 -77 42 -38 23 -75
41 -81 41 -7 0 -13 4 -13 9 0 4 -6 8 -14 8 -8 0 -16 4 -18 9 -1 5 -10 11 -18
13 -8 2 -21 9 -28 16 -8 7 -19 9 -25 5 -7 -3 -9 -3 -5 2 7 7 -133 95 -152 95
-4 0 -13 7 -21 16 -7 8 -21 13 -30 11 -10 -3 -17 -1 -16 5 1 5 -16 19 -38 31
-22 12 -42 24 -45 27 -6 6 -46 29 -82 47 -15 8 -30 19 -33 24 -4 5 -11 7 -16
4 -5 -4 -9 -2 -9 3 0 11 -60 38 -73 34 -5 -1 -6 2 -3 7 3 5 -6 14 -22 20 -26
11 -65 33 -117 67 -14 9 -25 13 -25 8 0 -5 -7 2 -16 14 -9 13 -21 21 -27 19
-11 -3 -20 2 -53 31 -8 8 -21 11 -30 8 -8 -3 -13 -2 -10 3 5 8 -7 17 -27 19
-4 1 -15 8 -23 17 -20 20 -43 18 -74 -4z m120 -165 c0 -2 -8 -10 -17 -17 -16
-13 -17 -12 -4 4 13 16 21 21 21 13z m157 -21 c0 -8 -4 -12 -9 -9 -5 3 -6 10
-3 15 9 13 12 11 12 -6z m-97 -15 c0 -5 -5 -10 -11 -10 -5 0 -7 5 -4 10 3 6 8
10 11 10 2 0 4 -4 4 -10z m275 -40 c3 -5 1 -10 -4 -10 -6 0 -11 5 -11 10 0 6
2 10 4 10 3 0 8 -4 11 -10z m-195 -80 c0 -5 -5 -10 -11 -10 -5 0 -7 5 -4 10 3
6 8 10 11 10 2 0 4 -4 4 -10z m-135 -19 c-9 -8 -36 -10 -30 -2 2 4 11 8 20 8
8 0 13 -3 10 -6z m66 -8 c13 -16 12 -17 -3 -4 -10 7 -18 15 -18 17 0 8 8 3 21
-13z m-76 -22 c3 -5 2 -12 -3 -15 -5 -3 -9 1 -9 9 0 17 3 19 12 6z m290 -11
c-3 -5 -12 -10 -18 -10 -7 0 -6 4 3 10 19 12 23 12 15 0z m195 -44 c-7 -7 -13
-7 -20 0 -6 6 -3 10 10 10 13 0 16 -4 10 -10z m-460 -16 c0 -5 -2 -10 -4 -10
-3 0 -8 5 -11 10 -3 6 -1 10 4 10 6 0 11 -4 11 -10z m360 6 c0 -3 -4 -8 -10
-11 -5 -3 -10 -1 -10 4 0 6 5 11 10 11 6 0 10 -2 10 -4z m338 -31 c-3 -3 -9 2
-12 12 -6 14 -5 15 5 6 7 -7 10 -15 7 -18z m-108 11 c0 -2 -8 -10 -17 -17 -16
-13 -17 -12 -4 4 13 16 21 21 21 13z m-605 -45 c-9 -8 -36 -10 -30 -2 2 4 11
8 20 8 8 0 13 -3 10 -6z m-5 -42 c0 -5 -4 -9 -8 -9 -5 0 -9 7 -9 15 0 8 4 12
9 9 4 -3 8 -9 8 -15z m601 4 c13 -16 12 -17 -3 -4 -17 13 -22 21 -14 21 2 0
10 -8 17 -17z m155 2 c-1 -8 -5 -17 -8 -21 -5 -4 -4 16 1 34 3 9 9 -1 7 -13z
m44 -1 c0 -8 -19 -13 -24 -6 -3 5 1 9 9 9 8 0 15 -2 15 -3z m-540 -24 c0 -5
-2 -10 -4 -10 -3 0 -8 5 -11 10 -3 6 -1 10 4 10 6 0 11 -4 11 -10z m600 0 c0
-5 -5 -10 -11 -10 -5 0 -7 5 -4 10 3 6 8 10 11 10 2 0 4 -4 4 -10z m-856 -18
c2 -4 -4 -8 -14 -8 -10 0 -16 4 -14 8 3 4 9 8 14 8 5 0 11 -4 14 -8z m456 -16
c0 -3 -4 -8 -10 -11 -5 -3 -10 -1 -10 4 0 6 5 11 10 11 6 0 10 -2 10 -4z m301
-23 c13 -16 12 -17 -3 -4 -17 13 -22 21 -14 21 2 0 10 -8 17 -17z m-471 3 c0
-2 -8 -10 -17 -17 -16 -13 -17 -12 -4 4 13 16 21 21 21 13z m581 -13 c13 -16
12 -17 -3 -4 -17 13 -22 21 -14 21 2 0 10 -8 17 -17z m144 -13 c3 -5 1 -10 -4
-10 -6 0 -11 5 -11 10 0 6 2 10 4 10 3 0 8 -4 11 -10z m-130 -19 c-9 -8 -36
-10 -30 -2 2 4 11 8 20 8 8 0 13 -3 10 -6z m-385 -21 c0 -5 -5 -10 -11 -10 -5
0 -7 5 -4 10 3 6 8 10 11 10 2 0 4 -4 4 -10z m-224 -26 c1 -9 0 -13 -4 -10 -3
4 -7 14 -8 22 -1 9 0 13 4 10 3 -4 7 -14 8 -22z m605 9 c13 -16 12 -17 -3 -4
-10 7 -18 15 -18 17 0 8 8 3 21 -13z m-741 -23 c0 -5 -5 -10 -11 -10 -5 0 -7
5 -4 10 3 6 8 10 11 10 2 0 4 -4 4 -10z m960 6 c0 -3 -4 -8 -10 -11 -5 -3 -10
-1 -10 4 0 6 5 11 10 11 6 0 10 -2 10 -4z m40 -6 c0 -5 -2 -10 -4 -10 -3 0 -8
5 -11 10 -3 6 -1 10 4 10 6 0 11 -4 11 -10z m40 6 c0 -3 -4 -8 -10 -11 -5 -3
-10 -1 -10 4 0 6 5 11 10 11 6 0 10 -2 10 -4z m-375 -25 c-9 -8 -36 -10 -30
-2 2 4 11 8 20 8 8 0 13 -3 10 -6z m-225 -21 c0 -5 -2 -10 -4 -10 -3 0 -8 5
-11 10 -3 6 -1 10 4 10 6 0 11 -4 11 -10z m640 6 c0 -3 -4 -8 -10 -11 -5 -3
-10 -1 -10 4 0 6 5 11 10 11 6 0 10 -2 10 -4z m-1270 -26 c11 -11 20 -18 20
-15 0 3 9 1 19 -5 11 -5 21 -7 24 -2 2 4 2 1 1 -5 -4 -14 30 -36 40 -26 3 3 6
1 6 -5 0 -7 6 -12 14 -12 7 0 19 -7 27 -16 8 -10 21 -13 38 -9 20 4 22 3 11
-5 -13 -9 -13 -11 0 -19 8 -5 18 -7 22 -5 4 3 8 0 8 -6 0 -6 5 -8 10 -5 6 3
10 2 10 -3 0 -5 21 -20 48 -33 26 -13 53 -30 60 -37 8 -6 18 -10 23 -7 5 4 9
1 9 -5 0 -6 15 -18 33 -26 48 -23 95 -50 112 -64 8 -7 15 -9 15 -4 0 5 4 4 8
-1 15 -21 184 -115 195 -108 7 3 9 2 4 -2 -9 -11 70 -58 83 -50 6 3 10 -1 10
-10 0 -9 5 -13 10 -10 6 3 10 3 10 -2 0 -4 21 -19 48 -33 26 -14 62 -35 81
-48 19 -12 41 -20 48 -18 7 3 12 1 10 -4 -2 -9 71 -55 106 -67 9 -3 17 -9 17
-14 0 -5 7 -9 15 -9 8 0 15 -5 15 -12 0 -6 3 -8 7 -5 3 4 21 -5 40 -19 18 -14
33 -22 33 -18 0 4 8 0 18 -8 27 -23 112 -70 112 -61 0 4 7 -3 16 -15 8 -12 24
-22 34 -22 10 0 22 -5 25 -10 4 -6 11 -7 17 -4 6 4 8 2 5 -3 -4 -6 26 -27 68
-49 l76 -38 -43 -26 c-109 -68 -415 -240 -427 -240 -6 0 -32 11 -57 25 -50 28
-58 30 -48 13 4 -7 3 -8 -5 -4 -6 4 -9 11 -6 16 6 10 -34 35 -42 27 -2 -3 -13
2 -22 11 -26 25 -58 45 -66 43 -4 -2 -11 1 -14 6 -3 4 -17 14 -30 21 -13 8
-39 23 -58 33 -19 11 -39 16 -45 13 -7 -4 -8 -2 -4 4 6 11 -50 48 -66 44 -5
-1 -8 3 -8 8 0 6 -7 10 -15 10 -8 0 -15 5 -15 10 0 6 -4 10 -9 10 -14 0 -205
112 -209 123 -2 4 -10 3 -18 -4 -8 -6 -15 -9 -15 -5 -1 3 -2 12 -3 19 -1 6 -7
11 -14 10 -7 -2 -12 2 -12 7 0 6 -5 10 -10 10 -10 0 -23 8 -98 59 -25 17 -37
20 -45 12 -6 -6 -16 -11 -22 -11 -5 0 -4 4 4 9 12 8 12 12 -2 26 -10 9 -17 14
-17 11 0 -3 -17 4 -37 16 -21 11 -55 30 -75 41 -21 12 -38 25 -38 30 0 5 -6 7
-14 4 -7 -3 -20 3 -29 14 -21 24 -62 34 -79 19 -7 -7 -39 -26 -70 -43 -32 -18
-167 -96 -300 -173 -134 -78 -259 -151 -278 -162 -19 -11 -118 -68 -220 -127
-102 -59 -205 -119 -230 -133 -25 -14 -52 -30 -61 -35 -12 -8 -26 -4 -53 12
-20 13 -36 20 -36 16 0 -3 -7 1 -16 10 -9 9 -24 13 -34 10 -10 -3 -21 -1 -25
4 -3 7 0 8 9 5 9 -3 16 -1 16 5 0 6 -8 11 -19 11 -10 0 -23 6 -29 13 -6 7 -34
24 -62 37 -27 13 -50 27 -50 32 0 4 -4 8 -10 8 -5 0 -31 14 -57 30 -26 17 -53
28 -60 26 -7 -3 -12 0 -10 7 1 6 -8 13 -20 15 -40 6 -25 26 50 68 39 22 191
110 337 195 146 86 285 167 310 181 92 52 225 128 240 138 13 7 92 54 225 130
112 65 285 167 370 218 55 33 103 61 108 61 4 1 16 -8 27 -19z m740 6 c0 -2
-8 -10 -17 -17 -16 -13 -17 -12 -4 4 13 16 21 21 21 13z m240 0 c0 -2 -8 -10
-17 -17 -16 -13 -17 -12 -4 4 13 16 21 21 21 13z m-870 -26 c0 -5 -2 -10 -4
-10 -3 0 -8 5 -11 10 -3 6 -1 10 4 10 6 0 11 -4 11 -10z m200 0 c0 -5 -5 -10
-11 -10 -5 0 -7 5 -4 10 3 6 8 10 11 10 2 0 4 -4 4 -10z m864 -18 c2 -4 -4 -8
-14 -8 -10 0 -16 4 -14 8 3 4 9 8 14 8 5 0 11 -4 14 -8z m-209 -31 c3 -5 2
-12 -3 -15 -5 -3 -9 1 -9 9 0 17 3 19 12 6z m-255 -31 c0 -5 -2 -10 -4 -10 -3
0 -8 5 -11 10 -3 6 -1 10 4 10 6 0 11 -4 11 -10z m541 -17 c13 -16 12 -17 -3
-4 -17 13 -22 21 -14 21 2 0 10 -8 17 -17z m73 -1 c3 -5 -1 -9 -9 -9 -8 0 -12
4 -9 9 3 4 7 8 9 8 2 0 6 -4 9 -8z m203 -7 c0 -8 -4 -12 -9 -9 -5 3 -6 10 -3
15 9 13 12 11 12 -6z m-1117 -19 c0 -2 -8 -10 -17 -17 -16 -13 -17 -12 -4 4
13 16 21 21 21 13z m721 -13 c13 -16 12 -17 -3 -4 -17 13 -22 21 -14 21 2 0
10 -8 17 -17z m-341 -17 c0 -3 -4 -8 -10 -11 -5 -3 -10 -1 -10 4 0 6 5 11 10
11 6 0 10 -2 10 -4z m320 -40 c0 -3 -4 -8 -10 -11 -5 -3 -10 -1 -10 4 0 6 5
11 10 11 6 0 10 -2 10 -4z m400 -6 c0 -5 -5 -10 -11 -10 -5 0 -7 5 -4 10 3 6
8 10 11 10 2 0 4 -4 4 -10z m-299 -17 c13 -16 12 -17 -3 -4 -17 13 -22 21 -14
21 2 0 10 -8 17 -17z m400 0 c13 -16 12 -17 -3 -4 -17 13 -22 21 -14 21 2 0
10 -8 17 -17z m-890 -10 c13 -16 12 -17 -3 -4 -17 13 -22 21 -14 21 2 0 10 -8
17 -17z m-51 -13 c0 -5 -5 -10 -11 -10 -5 0 -7 5 -4 10 3 6 8 10 11 10 2 0 4
-4 4 -10z m400 0 c0 -5 -2 -10 -4 -10 -3 0 -8 5 -11 10 -3 6 -1 10 4 10 6 0
11 -4 11 -10z m680 0 c0 -5 -5 -10 -11 -10 -5 0 -7 5 -4 10 3 6 8 10 11 10 2
0 4 -4 4 -10z m-1140 -4 c0 -2 -8 -10 -17 -17 -16 -13 -17 -12 -4 4 13 16 21
21 21 13z m881 -13 c13 -16 12 -17 -3 -4 -17 13 -22 21 -14 21 2 0 10 -8 17
-17z m-701 -17 c0 -3 -4 -8 -10 -11 -5 -3 -10 -1 -10 4 0 6 5 11 10 11 6 0 10
-2 10 -4z m640 -6 c0 -5 -5 -10 -11 -10 -5 0 -7 5 -4 10 3 6 8 10 11 10 2 0 4
-4 4 -10z m-725 -80 c3 -5 1 -10 -4 -10 -6 0 -11 5 -11 10 0 6 2 10 4 10 3 0
8 -4 11 -10z m160 0 c3 -5 1 -10 -4 -10 -6 0 -11 5 -11 10 0 6 2 10 4 10 3 0
8 -4 11 -10z m485 0 c0 -5 -2 -10 -4 -10 -3 0 -8 5 -11 10 -3 6 -1 10 4 10 6
0 11 -4 11 -10z m360 0 c0 -5 -2 -10 -4 -10 -3 0 -8 5 -11 10 -3 6 -1 10 4 10
6 0 11 -4 11 -10z m-264 -20 c0 -12 -4 -16 -9 -11 -5 5 -6 14 -3 20 10 15 12
14 12 -9z m164 16 c0 -2 -8 -10 -17 -17 -16 -13 -17 -12 -4 4 13 16 21 21 21
13z m250 -10 c0 -2 -8 -10 -17 -17 -16 -13 -17 -12 -4 4 13 16 21 21 21 13z
m-755 -26 c3 -5 1 -10 -4 -10 -6 0 -11 5 -11 10 0 6 2 10 4 10 3 0 8 -4 11
-10z m980 -28 c-3 -3 -11 0 -18 7 -9 10 -8 11 6 5 10 -3 15 -9 12 -12z m-580
-12 c3 -5 1 -10 -4 -10 -6 0 -11 5 -11 10 0 6 2 10 4 10 3 0 8 -4 11 -10z
m-365 -14 c0 -2 -8 -10 -17 -17 -16 -13 -17 -12 -4 4 13 16 21 21 21 13z m950
-6 c0 -5 -2 -10 -4 -10 -3 0 -8 5 -11 10 -3 6 -1 10 4 10 6 0 11 -4 11 -10z
m-900 -14 c0 -3 -4 -8 -10 -11 -5 -3 -10 -1 -10 4 0 6 5 11 10 11 6 0 10 -2
10 -4z m280 0 c0 -3 -4 -8 -10 -11 -5 -3 -10 -1 -10 4 0 6 5 11 10 11 6 0 10
-2 10 -4z m200 -6 c0 -5 -2 -10 -4 -10 -3 0 -8 5 -11 10 -3 6 -1 10 4 10 6 0
11 -4 11 -10z m-660 -4 c0 -2 -8 -10 -17 -17 -16 -13 -17 -12 -4 4 13 16 21
21 21 13z m391 -23 c13 -16 12 -17 -3 -4 -17 13 -22 21 -14 21 2 0 10 -8 17
-17z m339 13 c0 -2 -8 -10 -17 -17 -16 -13 -17 -12 -4 4 13 16 21 21 21 13z
m225 -14 c-3 -3 -11 0 -18 7 -9 10 -8 11 6 5 10 -3 15 -9 12 -12z m145 -12 c0
-5 -5 -10 -11 -10 -5 0 -7 5 -4 10 3 6 8 10 11 10 2 0 4 -4 4 -10z m-976 -18
c3 -5 -1 -9 -9 -9 -8 0 -12 4 -9 9 3 4 7 8 9 8 2 0 6 -4 9 -8z m616 -16 c0 -3
-4 -8 -10 -11 -5 -3 -10 -1 -10 4 0 6 5 11 10 11 6 0 10 -2 10 -4z m440 0 c0
-3 -4 -8 -10 -11 -5 -3 -10 -1 -10 4 0 6 5 11 10 11 6 0 10 -2 10 -4z m-2140
-20 c0 -2 -7 -7 -16 -10 -8 -3 -12 -2 -9 4 6 10 25 14 25 6z m1431 -13 c13
-16 12 -17 -3 -4 -10 7 -18 15 -18 17 0 8 8 3 21 -13z m339 13 c0 -2 -8 -10
-17 -17 -16 -13 -17 -12 -4 4 13 16 21 21 21 13z m301 -13 c13 -16 12 -17 -3
-4 -17 13 -22 21 -14 21 2 0 10 -8 17 -17z m-211 -7 c0 -3 -4 -8 -10 -11 -5
-3 -10 -1 -10 4 0 6 5 11 10 11 6 0 10 -2 10 -4z m-549 -33 c13 -16 12 -17 -3
-4 -10 7 -18 15 -18 17 0 8 8 3 21 -13z m-1291 -53 c0 -5 -5 -10 -11 -10 -5 0
-7 5 -4 10 3 6 8 10 11 10 2 0 4 -4 4 -10z m1760 0 c0 -5 -2 -10 -4 -10 -3 0
-8 5 -11 10 -3 6 -1 10 4 10 6 0 11 -4 11 -10z m-460 -4 c0 -2 -8 -10 -17 -17
-16 -13 -17 -12 -4 4 13 16 21 21 21 13z m180 -36 c0 -5 -2 -10 -4 -10 -3 0
-8 5 -11 10 -3 6 -1 10 4 10 6 0 11 -4 11 -10z m-1500 -4 c0 -2 -8 -10 -17
-17 -16 -13 -17 -12 -4 4 13 16 21 21 21 13z m60 -36 c0 -5 -5 -10 -11 -10 -5
0 -7 5 -4 10 3 6 8 10 11 10 2 0 4 -4 4 -10z m80 -80 c0 -5 -2 -10 -4 -10 -3
0 -8 5 -11 10 -3 6 -1 10 4 10 6 0 11 -4 11 -10z m1400 0 c0 -5 -5 -10 -11
-10 -5 0 -7 5 -4 10 3 6 8 10 11 10 2 0 4 -4 4 -10z m-1250 -14 c0 -2 -8 -10
-17 -17 -16 -13 -17 -12 -4 4 13 16 21 21 21 13z m120 -2 c0 -8 -19 -13 -24
-6 -3 5 1 9 9 9 8 0 15 -2 15 -3z m70 -4 c0 -5 -5 -10 -11 -10 -5 0 -7 5 -4
10 3 6 8 10 11 10 2 0 4 -4 4 -10z m-480 -24 c0 -2 -8 -10 -17 -17 -16 -13
-17 -12 -4 4 13 16 21 21 21 13z m484 -14 c2 -4 -4 -8 -14 -8 -10 0 -16 4 -14
8 3 4 9 8 14 8 5 0 11 -4 14 -8z m1121 -2 c3 -6 -1 -7 -9 -4 -18 7 -21 14 -7
14 6 0 13 -4 16 -10z m-1265 -20 c0 -5 -2 -10 -4 -10 -3 0 -8 5 -11 10 -3 6
-1 10 4 10 6 0 11 -4 11 -10z m-59 -17 c13 -16 12 -17 -3 -4 -17 13 -22 21
-14 21 2 0 10 -8 17 -17z m315 -3 c0 -12 -4 -16 -9 -11 -5 5 -6 14 -3 20 10
15 12 14 12 -9z m-45 -13 c-10 -9 -11 -8 -5 6 3 10 9 15 12 12 3 -3 0 -11 -7
-18z m-91 -1 c0 -3 -4 -8 -10 -11 -5 -3 -10 -1 -10 4 0 6 5 11 10 11 6 0 10
-2 10 -4z m-455 -25 c-9 -8 -36 -10 -30 -2 2 4 11 8 20 8 8 0 13 -3 10 -6z
m-1732 -36 c-3 -9 -8 -14 -10 -11 -3 3 -2 9 2 15 9 16 15 13 8 -4z m2088 -2
c13 -16 12 -17 -3 -4 -17 13 -22 21 -14 21 2 0 10 -8 17 -17z m-2241 -17 c0
-3 -4 -8 -10 -11 -5 -3 -10 -1 -10 4 0 6 5 11 10 11 6 0 10 -2 10 -4z m2215
-6 c3 -5 1 -10 -4 -10 -6 0 -11 5 -11 10 0 6 2 10 4 10 3 0 8 -4 11 -10z
m-2015 -4 c0 -2 -8 -10 -17 -17 -16 -13 -17 -12 -4 4 13 16 21 21 21 13z
m2161 -13 c13 -16 12 -17 -3 -4 -17 13 -22 21 -14 21 2 0 10 -8 17 -17z
m-2106 -23 c3 -5 1 -10 -4 -10 -6 0 -11 5 -11 10 0 6 2 10 4 10 3 0 8 -4 11
-10z m2325 0 c0 -5 -2 -10 -4 -10 -3 0 -8 5 -11 10 -3 6 -1 10 4 10 6 0 11 -4
11 -10z m-2250 -14 c0 -2 -8 -10 -17 -17 -16 -13 -17 -12 -4 4 13 16 21 21 21
13z m-430 -20 c0 -3 -4 -8 -10 -11 -5 -3 -10 -1 -10 4 0 6 5 11 10 11 6 0 10
-2 10 -4z m2120 -6 c0 -5 -5 -10 -11 -10 -5 0 -7 5 -4 10 3 6 8 10 11 10 2 0
4 -4 4 -10z m280 6 c0 -3 -4 -8 -10 -11 -5 -3 -10 -1 -10 4 0 6 5 11 10 11 6
0 10 -2 10 -4z m120 0 c0 -3 -4 -8 -10 -11 -5 -3 -10 -1 -10 4 0 6 5 11 10 11
6 0 10 -2 10 -4z m-2586 -36 c-6 -6 -10 -3 -10 10 0 13 4 16 10 10 7 -7 7 -13
0 -20z m2051 11 c-9 -8 -36 -10 -30 -2 2 4 11 8 20 8 8 0 13 -3 10 -6z m66 -8
c13 -16 12 -17 -3 -4 -17 13 -22 21 -14 21 2 0 10 -8 17 -17z m704 -13 c3 -5
1 -10 -4 -10 -6 0 -11 5 -11 10 0 6 2 10 4 10 3 0 8 -4 11 -10z m-2715 -34 c0
-3 -4 -8 -10 -11 -5 -3 -10 -1 -10 4 0 6 5 11 10 11 6 0 10 -2 10 -4z m1920 0
c0 -3 -4 -8 -10 -11 -5 -3 -10 -1 -10 4 0 6 5 11 10 11 6 0 10 -2 10 -4z m200
-6 c0 -5 -5 -10 -11 -10 -5 0 -7 5 -4 10 3 6 8 10 11 10 2 0 4 -4 4 -10z m440
0 c0 -5 -2 -10 -4 -10 -3 0 -8 5 -11 10 -3 6 -1 10 4 10 6 0 11 -4 11 -10z
m40 6 c0 -3 -4 -8 -10 -11 -5 -3 -10 -1 -10 4 0 6 5 11 10 11 6 0 10 -2 10 -4z
m160 -6 c0 -5 -5 -10 -11 -10 -5 0 -7 5 -4 10 3 6 8 10 11 10 2 0 4 -4 4 -10z
m240 6 c0 -3 -4 -8 -10 -11 -5 -3 -10 -1 -10 4 0 6 5 11 10 11 6 0 10 -2 10
-4z m34 -4 c3 -5 -1 -9 -9 -9 -8 0 -12 4 -9 9 3 4 7 8 9 8 2 0 6 -4 9 -8z
m-2453 -19 c13 -16 12 -17 -3 -4 -10 7 -18 15 -18 17 0 8 8 3 21 -13z m-341
-23 c0 -5 -5 -10 -11 -10 -5 0 -7 5 -4 10 3 6 8 10 11 10 2 0 4 -4 4 -10z
m275 0 c3 -5 1 -10 -4 -10 -6 0 -11 5 -11 10 0 6 2 10 4 10 3 0 8 -4 11 -10z
m1445 0 c0 -5 -2 -10 -4 -10 -3 0 -8 5 -11 10 -3 6 -1 10 4 10 6 0 11 -4 11
-10z m-2219 -17 c13 -16 12 -17 -3 -4 -17 13 -22 21 -14 21 2 0 10 -8 17 -17z
m3156 2 c0 -8 -4 -12 -9 -9 -5 3 -6 10 -3 15 9 13 12 11 12 -6z m-3217 -25 c0
-5 -5 -10 -11 -10 -5 0 -7 5 -4 10 3 6 8 10 11 10 2 0 4 -4 4 -10z m2520 0 c0
-5 -2 -10 -4 -10 -3 0 -8 5 -11 10 -3 6 -1 10 4 10 6 0 11 -4 11 -10z m-300
-40 c3 -3 11 -6 18 -8 7 -1 30 -14 52 -28 23 -15 44 -23 52 -18 7 4 10 4 6 -1
-11 -11 50 -47 65 -39 7 4 9 4 5 -1 -7 -8 55 -55 72 -55 6 0 10 -5 10 -11 0
-5 5 -7 10 -4 6 3 10 3 10 -2 0 -4 19 -17 43 -28 23 -11 44 -23 47 -26 12 -15
72 -39 82 -33 6 4 8 3 4 -4 -3 -6 -2 -13 4 -17 13 -8 13 -25 1 -25 -8 0 -356
-198 -421 -239 -65 -41 -89 -50 -100 -35 -7 8 -18 14 -24 14 -7 0 -28 11 -47
25 -19 14 -42 24 -51 22 -11 -3 -15 0 -11 9 3 8 -1 14 -10 14 -9 0 -23 7 -31
16 -9 8 -16 12 -16 7 0 -4 -4 -2 -9 5 -5 8 -20 15 -34 15 -14 1 -23 5 -21 9 6
9 -37 38 -48 32 -4 -3 -8 0 -8 5 0 6 -7 11 -15 11 -8 0 -15 4 -15 9 0 5 -8 11
-17 15 -19 6 -63 31 -108 60 -23 15 -29 16 -37 5 -8 -11 -9 -10 -5 3 3 9 1 18
-5 20 -6 2 4 12 23 22 19 9 55 29 80 44 25 15 127 74 227 132 101 58 178 109
175 115 -5 8 29 -17 47 -35z m-1467 5 c-3 -9 -8 -14 -10 -11 -3 3 -2 9 2 15 9
16 15 13 8 -4z m-678 -5 c3 -5 1 -10 -4 -10 -6 0 -11 5 -11 10 0 6 2 10 4 10
3 0 8 -4 11 -10z m560 0 c3 -5 1 -10 -4 -10 -6 0 -11 5 -11 10 0 6 2 10 4 10
3 0 8 -4 11 -10z m62 -15 c0 -8 -4 -12 -9 -9 -5 3 -6 10 -3 15 9 13 12 11 12
-6z m-722 -13 c-3 -3 -11 0 -18 7 -9 10 -8 11 6 5 10 -3 15 -9 12 -12z m2520
9 c3 -5 2 -12 -3 -15 -5 -3 -9 1 -9 9 0 17 3 19 12 6z m-2060 -21 c3 -5 1 -10
-4 -10 -6 0 -11 5 -11 10 0 6 2 10 4 10 3 0 8 -4 11 -10z m-174 -17 c13 -16
12 -17 -3 -4 -17 13 -22 21 -14 21 2 0 10 -8 17 -17z m-161 -7 c-7 -7 -13 -7
-20 0 -6 6 -3 10 10 10 13 0 16 -4 10 -10z m245 5 c-9 -8 -36 -10 -30 -2 2 4
11 8 20 8 8 0 13 -3 10 -6z m2161 -3 c3 -4 -1 -5 -10 -4 -8 1 -18 5 -22 8 -3
4 1 5 10 4 8 -1 18 -5 22 -8z m484 8 c0 -2 -8 -10 -17 -17 -16 -13 -17 -12 -4
4 13 16 21 21 21 13z m-497 -41 c-3 -9 -8 -14 -10 -11 -3 3 -2 9 2 15 9 16 15
13 8 -4z m-2393 1 c0 -2 -7 -7 -16 -10 -8 -3 -12 -2 -9 4 6 10 25 14 25 6z
m370 0 c0 -2 -8 -10 -17 -17 -16 -13 -17 -12 -4 4 13 16 21 21 21 13z m2464
-12 c3 -8 2 -12 -4 -9 -6 3 -10 10 -10 16 0 14 7 11 14 -7z m-54 -8 c0 -3 -4
-8 -10 -11 -5 -3 -10 -1 -10 4 0 6 5 11 10 11 6 0 10 -2 10 -4z m-229 -33 c13
-16 12 -17 -3 -4 -17 13 -22 21 -14 21 2 0 10 -8 17 -17z m160 0 c13 -16 12
-17 -3 -4 -10 7 -18 15 -18 17 0 8 8 3 21 -13z m84 -12 c3 -5 2 -12 -3 -15 -5
-3 -9 1 -9 9 0 17 3 19 12 6z m-151 -19 c3 -5 -1 -9 -9 -9 -8 0 -12 4 -9 9 3
4 7 8 9 8 2 0 6 -4 9 -8z m-11 -37 c-3 -9 -8 -14 -10 -11 -3 3 -2 9 2 15 9 16
15 13 8 -4z m52 -5 c3 -6 -1 -7 -9 -4 -18 7 -21 14 -7 14 6 0 13 -4 16 -10z
m-1110 -140 c3 -5 1 -10 -4 -10 -6 0 -11 5 -11 10 0 6 2 10 4 10 3 0 8 -4 11
-10z m2485 0 c0 -5 -5 -10 -11 -10 -5 0 -7 5 -4 10 3 6 8 10 11 10 2 0 4 -4 4
-10z m-140 -4 c0 -2 -8 -10 -17 -17 -16 -13 -17 -12 -4 4 13 16 21 21 21 13z
m-2485 -16 c3 -5 1 -10 -4 -10 -6 0 -11 5 -11 10 0 6 2 10 4 10 3 0 8 -4 11
-10z m240 -8 c-3 -3 -11 0 -18 7 -9 10 -8 11 6 5 10 -3 15 -9 12 -12z m2465
-6 c0 -3 -4 -8 -10 -11 -5 -3 -10 -1 -10 4 0 6 5 11 10 11 6 0 10 -2 10 -4z
m-2664 -21 c-1 -8 -5 -17 -8 -21 -5 -4 -4 16 1 34 3 9 9 -1 7 -13z m-31 -5 c3
-6 -1 -7 -9 -4 -18 7 -21 14 -7 14 6 0 13 -4 16 -10z m70 0 c3 -5 1 -10 -4
-10 -6 0 -11 5 -11 10 0 6 2 10 4 10 3 0 8 -4 11 -10z m205 6 c0 -2 -7 -7 -16
-10 -8 -3 -12 -2 -9 4 6 10 25 14 25 6z m2080 -5 c0 -6 -4 -12 -8 -15 -5 -3
-9 1 -9 9 0 8 4 15 9 15 4 0 8 -4 8 -9z m180 -21 c0 -5 -2 -10 -4 -10 -3 0 -8
5 -11 10 -3 6 -1 10 4 10 6 0 11 -4 11 -10z m-2720 -40 c0 -5 -5 -10 -11 -10
-5 0 -7 5 -4 10 3 6 8 10 11 10 2 0 4 -4 4 -10z m360 6 c0 -3 -4 -8 -10 -11
-5 -3 -10 -1 -10 4 0 6 5 11 10 11 6 0 10 -2 10 -4z m120 -6 c0 -5 -5 -10 -11
-10 -5 0 -7 5 -4 10 3 6 8 10 11 10 2 0 4 -4 4 -10z m160 -14 c0 -3 -4 -8 -10
-11 -5 -3 -10 -1 -10 4 0 6 5 11 10 11 6 0 10 -2 10 -4z m1817 -11 c0 -8 -4
-12 -9 -9 -4 3 -8 9 -8 15 0 5 4 9 8 9 5 0 9 -7 9 -15z m-2537 -15 c0 -5 -5
-10 -11 -10 -5 0 -7 5 -4 10 3 6 8 10 11 10 2 0 4 -4 4 -10z m2600 0 c0 -5 -2
-10 -4 -10 -3 0 -8 5 -11 10 -3 6 -1 10 4 10 6 0 11 -4 11 -10z m475 0 c3 -5
1 -10 -4 -10 -6 0 -11 5 -11 10 0 6 2 10 4 10 3 0 8 -4 11 -10z m-2894 -17
c13 -16 12 -17 -3 -4 -10 7 -18 15 -18 17 0 8 8 3 21 -13z m-181 -23 c0 -5 -2
-10 -4 -10 -3 0 -8 5 -11 10 -3 6 -1 10 4 10 6 0 11 -4 11 -10z m120 0 c0 -5
-5 -10 -11 -10 -5 0 -7 5 -4 10 3 6 8 10 11 10 2 0 4 -4 4 -10z m560 0 c0 -5
-2 -10 -4 -10 -3 0 -8 5 -11 10 -3 6 -1 10 4 10 6 0 11 -4 11 -10z m2000 -34
c0 -3 -4 -8 -10 -11 -5 -3 -10 -1 -10 4 0 6 5 11 10 11 6 0 10 -2 10 -4z
m-189 -33 c13 -16 12 -17 -3 -4 -17 13 -22 21 -14 21 2 0 10 -8 17 -17z m419
11 c0 -8 -19 -13 -24 -6 -3 5 1 9 9 9 8 0 15 -2 15 -3z m-2870 -24 c0 -5 -2
-10 -4 -10 -3 0 -8 5 -11 10 -3 6 -1 10 4 10 6 0 11 -4 11 -10z m621 -17 c13
-16 12 -17 -3 -4 -10 7 -18 15 -18 17 0 8 8 3 21 -13z m1833 -1 c3 -5 -1 -9
-9 -9 -8 0 -12 4 -9 9 3 4 7 8 9 8 2 0 6 -4 9 -8z m117 -9 c13 -16 12 -17 -3
-4 -17 13 -22 21 -14 21 2 0 10 -8 17 -17z m160 0 c13 -16 12 -17 -3 -4 -17
13 -22 21 -14 21 2 0 10 -8 17 -17z m-3051 -12 c0 -10 39 -27 53 -23 4 1 7 -2
7 -8 0 -5 17 -17 38 -26 20 -10 41 -24 45 -31 5 -7 13 -11 18 -8 5 4 6 11 3
17 -4 7 -2 8 4 4 6 -4 8 -14 5 -23 -4 -11 -3 -14 5 -9 7 4 12 2 12 -3 0 -6 7
-11 15 -11 8 0 15 -5 15 -11 0 -5 4 -8 8 -5 5 3 19 -4 30 -15 12 -11 22 -17
22 -14 0 4 12 -3 26 -14 30 -23 49 -28 38 -8 -4 7 -3 9 2 4 5 -5 9 -13 9 -18
0 -5 2 -8 5 -6 3 1 17 -8 30 -21 14 -13 33 -21 42 -18 10 2 16 1 13 -4 -3 -4
2 -13 10 -20 8 -7 15 -10 15 -6 0 3 18 -5 39 -20 23 -15 45 -23 52 -18 8 4 9
3 5 -4 -4 -7 -1 -12 9 -12 9 0 13 -4 10 -10 -3 -5 2 -10 13 -10 10 0 28 -9 41
-21 12 -12 28 -22 34 -23 7 -1 28 -12 47 -24 19 -12 41 -22 48 -22 6 0 12 -4
12 -9 0 -10 39 -27 53 -23 5 1 6 -2 3 -7 -8 -12 91 -64 105 -55 6 3 13 -3 16
-15 3 -11 9 -19 13 -16 4 3 13 -2 20 -10 10 -12 16 -13 27 -4 11 10 12 8 7 -6
-5 -13 -4 -16 4 -11 7 4 12 3 12 -1 0 -14 54 -41 69 -35 8 3 11 0 7 -7 -4 -6
1 -14 11 -18 10 -3 24 -11 32 -17 26 -20 45 -14 140 41 53 31 116 67 141 81
25 14 48 30 52 36 4 6 8 7 8 2 0 -5 8 -2 18 6 9 8 24 18 32 21 8 4 33 18 55
32 22 14 47 28 55 32 8 4 62 34 120 68 288 169 333 195 340 195 5 0 10 3 12 8
2 4 23 18 48 31 25 14 79 45 120 70 71 43 141 62 137 37 -1 -6 4 -10 11 -8 6
1 12 -3 12 -9 0 -5 5 -7 10 -4 6 3 10 1 10 -5 0 -6 5 -8 10 -5 6 3 10 1 10 -4
0 -6 18 -19 40 -28 22 -10 40 -21 40 -25 0 -5 7 -8 16 -8 9 0 12 5 8 13 -4 7
-3 9 2 4 5 -5 9 -12 9 -15 0 -15 17 -32 26 -27 5 4 9 2 9 -3 0 -6 10 -12 23
-16 13 -3 34 -14 46 -26 13 -11 28 -17 32 -14 5 3 9 0 9 -5 0 -6 7 -11 15 -11
8 0 15 -4 15 -10 0 -5 6 -10 13 -10 13 -1 62 -39 56 -43 -2 -2 -83 -49 -179
-104 -328 -188 -395 -227 -400 -233 -3 -3 -23 -15 -45 -26 -35 -18 -172 -98
-215 -125 -21 -13 -285 -166 -340 -197 -25 -14 -89 -52 -143 -84 -55 -32 -101
-58 -103 -58 -2 0 -28 -16 -59 -35 -30 -20 -63 -39 -73 -42 -9 -4 -35 -19 -57
-34 -30 -20 -44 -25 -57 -18 -10 5 -18 6 -18 2 0 -4 -4 -3 -8 2 -10 15 -72 58
-72 50 0 -4 -14 5 -32 19 -29 23 -33 23 -44 8 -12 -15 -12 -15 -8 4 5 19 -8
31 -51 45 -5 1 -19 11 -29 21 -20 18 -42 15 -30 -4 4 -7 2 -8 -4 -4 -6 4 -9
13 -5 21 3 9 -1 15 -11 15 -9 0 -16 5 -16 11 0 8 -5 7 -15 -1 -9 -7 -18 -10
-22 -6 -3 3 -1 6 5 6 7 0 12 5 12 12 0 6 -3 8 -7 5 -3 -4 -16 2 -29 14 -12 11
-28 21 -37 23 -8 1 -22 10 -31 19 -10 9 -22 15 -27 12 -5 -4 -9 -1 -9 5 0 6
-4 9 -9 6 -5 -4 -11 -2 -13 2 -3 9 -191 118 -196 114 -1 -1 -8 2 -15 8 -38 32
-142 90 -153 86 -8 -3 -13 -2 -11 2 1 4 -2 8 -6 9 -5 1 -15 9 -21 19 -8 11
-26 17 -47 17 -19 0 -28 2 -22 4 10 4 9 8 -1 19 -8 8 -19 14 -23 14 -5 0 -24
11 -43 25 -18 13 -37 22 -41 19 -5 -3 -9 0 -9 5 0 6 -6 11 -14 11 -8 0 -16 6
-19 13 -3 10 -9 10 -26 0 -28 -17 -40 -17 -17 0 17 13 16 15 -17 36 -20 12
-42 19 -48 15 -7 -4 -9 -3 -5 4 8 14 -50 43 -72 36 -13 -5 -14 -4 -4 4 10 7 5
13 -22 26 -20 9 -41 14 -46 11 -5 -3 -7 0 -4 8 5 14 -41 41 -56 32 -5 -3 -12
0 -16 6 -5 8 -2 10 7 5 8 -4 5 0 -5 8 -11 9 -26 16 -33 16 -7 0 -13 4 -13 9 0
8 -32 23 -57 25 -6 1 -15 5 -20 10 -4 5 -3 6 5 2 6 -4 12 -5 12 -2 0 4 -59 36
-67 36 -2 0 -1 -6 3 -12 4 -8 3 -10 -2 -5 -5 5 -9 14 -9 20 -1 7 -7 11 -14 9
-7 -1 -11 3 -9 10 4 12 306 195 388 236 19 9 37 20 40 23 5 6 30 17 43 18 4 1
7 -3 7 -8z m440 -1 c0 -5 -5 -10 -11 -10 -5 0 -7 5 -4 10 3 6 8 10 11 10 2 0
4 -4 4 -10z m240 0 c0 -5 -2 -10 -4 -10 -3 0 -8 5 -11 10 -3 6 -1 10 4 10 6 0
11 -4 11 -10z m500 0 c0 -5 -2 -10 -4 -10 -3 0 -8 5 -11 10 -3 6 -1 10 4 10 6
0 11 -4 11 -10z m1420 0 c0 -5 -2 -10 -4 -10 -3 0 -8 5 -11 10 -3 6 -1 10 4
10 6 0 11 -4 11 -10z m355 0 c3 -5 1 -10 -4 -10 -6 0 -11 5 -11 10 0 6 2 10 4
10 3 0 8 -4 11 -10z m-174 -17 c13 -16 12 -17 -3 -4 -17 13 -22 21 -14 21 2 0
10 -8 17 -17z m-61 -23 c0 -5 -5 -10 -11 -10 -5 0 -7 5 -4 10 3 6 8 10 11 10
2 0 4 -4 4 -10z m400 6 c0 -3 -4 -8 -10 -11 -5 -3 -10 -1 -10 4 0 6 5 11 10
11 6 0 10 -2 10 -4z m-2469 -33 c13 -16 12 -17 -3 -4 -10 7 -18 15 -18 17 0 8
8 3 21 -13z m-136 -13 c3 -5 1 -10 -4 -10 -6 0 -11 5 -11 10 0 6 2 10 4 10 3
0 8 -4 11 -10z m365 0 c0 -5 -5 -10 -11 -10 -5 0 -7 5 -4 10 3 6 8 10 11 10 2
0 4 -4 4 -10z m-99 -17 c13 -16 12 -17 -3 -4 -10 7 -18 15 -18 17 0 8 8 3 21
-13z m2239 13 c0 -2 -8 -10 -17 -17 -16 -13 -17 -12 -4 4 13 16 21 21 21 13z
m81 -13 c13 -16 12 -17 -3 -4 -17 13 -22 21 -14 21 2 0 10 -8 17 -17z m-2381
-23 c0 -5 -5 -10 -11 -10 -5 0 -7 5 -4 10 3 6 8 10 11 10 2 0 4 -4 4 -10z
m2200 6 c0 -3 -4 -8 -10 -11 -5 -3 -10 -1 -10 4 0 6 5 11 10 11 6 0 10 -2 10
-4z m-2465 -25 c3 -5 2 -12 -3 -15 -5 -3 -9 1 -9 9 0 17 3 19 12 6z m705 -15
c0 -3 -4 -8 -10 -11 -5 -3 -10 -1 -10 4 0 6 5 11 10 11 6 0 10 -2 10 -4z
m1675 -6 c3 -5 1 -10 -4 -10 -6 0 -11 5 -11 10 0 6 2 10 4 10 3 0 8 -4 11 -10z
m-2134 -17 c13 -16 12 -17 -3 -4 -10 7 -18 15 -18 17 0 8 8 3 21 -13z m-241
-5 c0 -4 -4 -8 -9 -8 -6 0 -12 4 -15 8 -3 5 1 9 9 9 8 0 15 -4 15 -9z m2438
-43 c-3 -3 -9 2 -12 12 -6 14 -5 15 5 6 7 -7 10 -15 7 -18z m-2438 11 c0 -2
-7 -7 -16 -10 -8 -3 -12 -2 -9 4 6 10 25 14 25 6z m671 -13 c13 -16 12 -17 -3
-4 -10 7 -18 15 -18 17 0 8 8 3 21 -13z m-211 -53 c0 -5 -2 -10 -4 -10 -3 0
-8 5 -11 10 -3 6 -1 10 4 10 6 0 11 -4 11 -10z m120 0 c0 -5 -2 -10 -4 -10 -3
0 -8 5 -11 10 -3 6 -1 10 4 10 6 0 11 -4 11 -10z m-224 -26 c1 -9 0 -13 -4
-10 -3 4 -7 14 -8 22 -1 9 0 13 4 10 3 -4 7 -14 8 -22z m161 11 c0 -8 -4 -15
-9 -15 -10 0 -11 14 -1 23 9 10 10 9 10 -8z m159 -5 c0 -12 -4 -16 -9 -11 -5
5 -6 14 -3 20 10 15 12 14 12 -9z m-351 0 c-3 -5 -12 -10 -18 -10 -7 0 -6 4 3
10 19 12 23 12 15 0z m386 -7 c13 -16 12 -17 -3 -4 -10 7 -18 15 -18 17 0 8 8
3 21 -13z m-496 -13 c3 -5 1 -10 -4 -10 -6 0 -11 5 -11 10 0 6 2 10 4 10 3 0
8 -4 11 -10z m205 0 c0 -5 -5 -10 -11 -10 -5 0 -7 5 -4 10 3 6 8 10 11 10 2 0
4 -4 4 -10z m-1405 -40 c3 -5 1 -10 -4 -10 -6 0 -11 5 -11 10 0 6 2 10 4 10 3
0 8 -4 11 -10z m165 6 c0 -3 -4 -8 -10 -11 -5 -3 -10 -1 -10 4 0 6 5 11 10 11
6 0 10 -2 10 -4z m-280 -46 c0 -5 -5 -10 -11 -10 -5 0 -7 5 -4 10 3 6 8 10 11
10 2 0 4 -4 4 -10z m-80 -40 c0 -5 -2 -10 -4 -10 -3 0 -8 5 -11 10 -3 6 -1 10
4 10 6 0 11 -4 11 -10z m240 0 c0 -5 -5 -10 -11 -10 -5 0 -7 5 -4 10 3 6 8 10
11 10 2 0 4 -4 4 -10z m138 -25 c-3 -3 -9 2 -12 12 -6 14 -5 15 5 6 7 -7 10
-15 7 -18z m38 5 c0 -12 -4 -16 -9 -11 -5 5 -6 14 -3 20 10 15 12 14 12 -9z
m1184 -14 c0 -3 -4 -8 -10 -11 -5 -3 -10 -1 -10 4 0 6 5 11 10 11 6 0 10 -2
10 -4z m305 -6 c3 -6 -1 -7 -9 -4 -18 7 -21 14 -7 14 6 0 13 -4 16 -10z
m-1585 -40 c0 -5 -2 -10 -4 -10 -3 0 -8 5 -11 10 -3 6 -1 10 4 10 6 0 11 -4
11 -10z m320 0 c0 -5 -5 -10 -11 -10 -5 0 -7 5 -4 10 3 6 8 10 11 10 2 0 4 -4
4 -10z m1061 -17 c13 -16 12 -17 -3 -4 -10 7 -18 15 -18 17 0 8 8 3 21 -13z
m-991 -37 c0 -2 -8 -10 -17 -17 -16 -13 -17 -12 -4 4 13 16 21 21 21 13z
m1116 -8 c3 -4 -1 -5 -10 -4 -8 1 -18 5 -22 8 -3 4 1 5 10 4 8 -1 18 -5 22 -8z
m-1946 -12 c0 -3 -4 -8 -10 -11 -5 -3 -10 -1 -10 4 0 6 5 11 10 11 6 0 10 -2
10 -4z m680 0 c0 -3 -4 -8 -10 -11 -5 -3 -10 -1 -10 4 0 6 5 11 10 11 6 0 10
-2 10 -4z m-380 -20 c0 -2 -7 -7 -16 -10 -8 -3 -12 -2 -9 4 6 10 25 14 25 6z
m300 -26 c0 -5 -2 -10 -4 -10 -3 0 -8 5 -11 10 -3 6 -1 10 4 10 6 0 11 -4 11
-10z m1400 6 c0 -3 -4 -8 -10 -11 -5 -3 -10 -1 -10 4 0 6 5 11 10 11 6 0 10
-2 10 -4z m-2240 -42 c0 -8 -19 -13 -24 -6 -3 5 1 9 9 9 8 0 15 -2 15 -3z
m560 -4 c0 -5 -2 -10 -4 -10 -3 0 -8 5 -11 10 -3 6 -1 10 4 10 6 0 11 -4 11
-10z m480 6 c0 -3 -4 -8 -10 -11 -5 -3 -10 -1 -10 4 0 6 5 11 10 11 6 0 10 -2
10 -4z m160 0 c0 -3 -4 -8 -10 -11 -5 -3 -10 -1 -10 4 0 6 5 11 10 11 6 0 10
-2 10 -4z m-1105 -25 c3 -5 2 -12 -3 -15 -5 -3 -9 1 -9 9 0 17 3 19 12 6z
m775 5 c0 -2 -8 -10 -17 -17 -16 -13 -17 -12 -4 4 13 16 21 21 21 13z m-635
-26 c3 -5 1 -10 -4 -10 -6 0 -11 5 -11 10 0 6 2 10 4 10 3 0 8 -4 11 -10z
m205 6 c0 -3 -4 -8 -10 -11 -5 -3 -10 -1 -10 4 0 6 5 11 10 11 6 0 10 -2 10
-4z m640 -6 c0 -5 -2 -10 -4 -10 -3 0 -8 5 -11 10 -3 6 -1 10 4 10 6 0 11 -4
11 -10z m-900 -4 c0 -2 -8 -10 -17 -17 -16 -13 -17 -12 -4 4 13 16 21 21 21
13z m330 -10 c0 -2 -8 -10 -17 -17 -16 -13 -17 -12 -4 4 13 16 21 21 21 13z
m160 0 c0 -2 -8 -10 -17 -17 -16 -13 -17 -12 -4 4 13 16 21 21 21 13z m-270
-20 c0 -3 -4 -8 -10 -11 -5 -3 -10 -1 -10 4 0 6 5 11 10 11 6 0 10 -2 10 -4z
m840 0 c0 -3 -4 -8 -10 -11 -5 -3 -10 -1 -10 4 0 6 5 11 10 11 6 0 10 -2 10
-4z m194 -4 c2 -4 -5 -9 -17 -9 -17 -2 -19 0 -7 7 18 12 18 12 24 2z m-1140
-32 c-6 -6 -10 -3 -10 10 0 13 4 16 10 10 7 -7 7 -13 0 -20z m-83 3 c13 -16
12 -17 -3 -4 -10 7 -18 15 -18 17 0 8 8 3 21 -13z m929 -17 c0 -2 -8 -10 -17
-17 -16 -13 -17 -12 -4 4 13 16 21 21 21 13z m-550 -10 c0 -2 -8 -10 -17 -17
-16 -13 -17 -12 -4 4 13 16 21 21 21 13z m885 -26 c3 -5 1 -10 -4 -10 -6 0
-11 5 -11 10 0 6 2 10 4 10 3 0 8 -4 11 -10z m-1141 -26 c3 -8 2 -12 -4 -9 -6
3 -10 10 -10 16 0 14 7 11 14 -7z m461 -14 c3 -5 1 -10 -4 -10 -6 0 -11 5 -11
10 0 6 2 10 4 10 3 0 8 -4 11 -10z m506 -17 c13 -16 12 -17 -3 -4 -17 13 -22
21 -14 21 2 0 10 -8 17 -17z m-886 -11 c-3 -3 -11 0 -18 7 -9 10 -8 11 6 5 10
-3 15 -9 12 -12z m1135 14 c0 -2 -8 -10 -17 -17 -16 -13 -17 -12 -4 4 13 16
21 21 21 13z m-950 -26 c0 -5 -5 -10 -11 -10 -5 0 -7 5 -4 10 3 6 8 10 11 10
2 0 4 -4 4 -10z m800 6 c0 -3 -4 -8 -10 -11 -5 -3 -10 -1 -10 4 0 6 5 11 10
11 6 0 10 -2 10 -4z m320 -22 c0 -8 -19 -13 -24 -6 -3 5 1 9 9 9 8 0 15 -2 15
-3z m-405 -24 c3 -5 1 -10 -4 -10 -6 0 -11 5 -11 10 0 6 2 10 4 10 3 0 8 -4
11 -10z m-417 -25 c-3 -3 -9 2 -12 12 -6 14 -5 15 5 6 7 -7 10 -15 7 -18z
m-244 -1 c3 -8 2 -12 -4 -9 -6 3 -10 10 -10 16 0 14 7 11 14 -7z m1101 -14 c3
-5 1 -10 -4 -10 -6 0 -11 5 -11 10 0 6 2 10 4 10 3 0 8 -4 11 -10z m65 -4 c0
-2 -8 -10 -17 -17 -16 -13 -17 -12 -4 4 13 16 21 21 21 13z m-470 -10 c0 -2
-8 -10 -17 -17 -16 -13 -17 -12 -4 4 13 16 21 21 21 13z m-675 -26 c3 -5 1
-10 -4 -10 -6 0 -11 5 -11 10 0 6 2 10 4 10 3 0 8 -4 11 -10z m725 6 c0 -3 -4
-8 -10 -11 -5 -3 -10 -1 -10 4 0 6 5 11 10 11 6 0 10 -2 10 -4z m-180 -10 c0
-2 -8 -10 -17 -17 -16 -13 -17 -12 -4 4 13 16 21 21 21 13z m660 -36 c0 -5 -2
-10 -4 -10 -3 0 -8 5 -11 10 -3 6 -1 10 4 10 6 0 11 -4 11 -10z m-389 -27 c13
-16 12 -17 -3 -4 -17 13 -22 21 -14 21 2 0 10 -8 17 -17z m-491 -13 c0 -5 -5
-10 -11 -10 -5 0 -7 5 -4 10 3 6 8 10 11 10 2 0 4 -4 4 -10z m1040 6 c0 -3 -4
-8 -10 -11 -5 -3 -10 -1 -10 4 0 6 5 11 10 11 6 0 10 -2 10 -4z m-819 -23 c13
-16 12 -17 -3 -4 -17 13 -22 21 -14 21 2 0 10 -8 17 -17z m-61 -23 c0 -5 -5
-10 -11 -10 -5 0 -7 5 -4 10 3 6 8 10 11 10 2 0 4 -4 4 -10z m-240 -34 c0 -3
-4 -8 -10 -11 -5 -3 -10 -1 -10 4 0 6 5 11 10 11 6 0 10 -2 10 -4z m600 0 c0
-3 -4 -8 -10 -11 -5 -3 -10 -1 -10 4 0 6 5 11 10 11 6 0 10 -2 10 -4z m-69
-33 c13 -16 12 -17 -3 -4 -17 13 -22 21 -14 21 2 0 10 -8 17 -17z m-371 -13
c0 -5 -2 -10 -4 -10 -3 0 -8 5 -11 10 -3 6 -1 10 4 10 6 0 11 -4 11 -10z m555
0 c3 -5 1 -10 -4 -10 -6 0 -11 5 -11 10 0 6 2 10 4 10 3 0 8 -4 11 -10z m325
0 c0 -5 -5 -10 -11 -10 -5 0 -7 5 -4 10 3 6 8 10 11 10 2 0 4 -4 4 -10z m-780
-4 c0 -2 -8 -10 -17 -17 -16 -13 -17 -12 -4 4 13 16 21 21 21 13z m156 -11
c-1 -8 -5 -17 -8 -21 -5 -4 -4 16 1 34 3 9 9 -1 7 -13z m44 -1 c0 -8 -19 -13
-24 -6 -3 5 1 9 9 9 8 0 15 -2 15 -3z m90 0 c0 -8 -19 -13 -24 -6 -3 5 1 9 9
9 8 0 15 -2 15 -3z m-9 -41 c13 -16 12 -17 -3 -4 -17 13 -22 21 -14 21 2 0 10
-8 17 -17z m79 13 c0 -2 -8 -10 -17 -17 -16 -13 -17 -12 -4 4 13 16 21 21 21
13z m500 -30 c0 -3 -4 -8 -10 -11 -5 -3 -10 -1 -10 4 0 6 5 11 10 11 6 0 10
-2 10 -4z m240 -22 c0 -8 -19 -13 -24 -6 -3 5 1 9 9 9 8 0 15 -2 15 -3z
m-1080 -24 c0 -5 -2 -10 -4 -10 -3 0 -8 5 -11 10 -3 6 -1 10 4 10 6 0 11 -4
11 -10z m960 0 c0 -5 -2 -10 -4 -10 -3 0 -8 5 -11 10 -3 6 -1 10 4 10 6 0 11
-4 11 -10z m-69 -27 c13 -16 12 -17 -3 -4 -17 13 -22 21 -14 21 2 0 10 -8 17
-17z m-416 -13 c3 -5 1 -10 -4 -10 -6 0 -11 5 -11 10 0 6 2 10 4 10 3 0 8 -4
11 -10z m285 0 c0 -5 -2 -10 -4 -10 -3 0 -8 5 -11 10 -3 6 -1 10 4 10 6 0 11
-4 11 -10z m-240 -40 c0 -5 -5 -10 -11 -10 -5 0 -7 5 -4 10 3 6 8 10 11 10 2
0 4 -4 4 -10z m545 0 c3 -6 -1 -7 -9 -4 -18 7 -21 14 -7 14 6 0 13 -4 16 -10z
m-665 -34 c0 -3 -4 -8 -10 -11 -5 -3 -10 -1 -10 4 0 6 5 11 10 11 6 0 10 -2
10 -4z m-99 -23 c13 -16 12 -17 -3 -4 -10 7 -18 15 -18 17 0 8 8 3 21 -13z
m550 -10 c13 -16 12 -17 -3 -4 -10 7 -18 15 -18 17 0 8 8 3 21 -13z m-256 -13
c3 -5 1 -10 -4 -10 -6 0 -11 5 -11 10 0 6 2 10 4 10 3 0 8 -4 11 -10z m386
-17 c13 -16 12 -17 -3 -4 -10 7 -18 15 -18 17 0 8 8 3 21 -13z m59 -57 c0 -3
-4 -8 -10 -11 -5 -3 -10 -1 -10 4 0 6 5 11 10 11 6 0 10 -2 10 -4z m-400 -46
c0 -5 -5 -10 -11 -10 -5 0 -7 5 -4 10 3 6 8 10 11 10 2 0 4 -4 4 -10z m200 0
c0 -5 -2 -10 -4 -10 -3 0 -8 5 -11 10 -3 6 -1 10 4 10 6 0 11 -4 11 -10z m171
-27 c13 -16 12 -17 -3 -4 -10 7 -18 15 -18 17 0 8 8 3 21 -13z m-394 -68 c0
-8 -4 -12 -9 -9 -5 3 -6 10 -3 15 9 13 12 11 12 -6z m399 -5 c0 -12 -4 -16 -9
-11 -5 5 -6 14 -3 20 10 15 12 14 12 -9z m-321 0 c3 -5 1 -10 -4 -10 -6 0 -11
5 -11 10 0 6 2 10 4 10 3 0 8 -4 11 -10z m276 -13 c-10 -9 -11 -8 -5 6 3 10 9
15 12 12 3 -3 0 -11 -7 -18z m80 6 c13 -16 12 -17 -3 -4 -10 7 -18 15 -18 17
0 8 8 3 21 -13z m-153 -78 c-3 -3 -9 2 -12 12 -6 14 -5 15 5 6 7 -7 10 -15 7
-18z m39 10 c0 -8 -4 -15 -9 -15 -10 0 -11 14 -1 23 9 10 10 9 10 -8z m39 -5
c0 -12 -4 -16 -9 -11 -5 5 -6 14 -3 20 10 15 12 14 12 -9z m84 -114 c0 -2 -7
-7 -16 -10 -8 -3 -12 -2 -9 4 6 10 25 14 25 6z"/>
</g>
</svg>
